<svg width="24" height="24" viewBox="0 0 24 24" fill="none" xmlns="http://www.w3.org/2000/svg">
<rect width="24" height="24" rx="4" fill="#49AF3E"/>
<path d="M16.7523 19.497C15.8403 19.497 15.0783 19.335 14.4663 19.011C13.8543 18.687 13.3923 18.189 13.0803 17.517C12.7683 16.833 12.5943 15.951 12.5583 14.871L15.3123 14.457C15.3243 15.081 15.3783 15.585 15.4743 15.969C15.5823 16.353 15.7263 16.629 15.9063 16.797C16.0983 16.965 16.3263 17.049 16.5903 17.049C16.9263 17.049 17.1423 16.935 17.2383 16.707C17.3463 16.479 17.4003 16.239 17.4003 15.987C17.4003 15.387 17.2563 14.883 16.9683 14.475C16.6803 14.055 16.2903 13.635 15.7983 13.215L14.5383 12.117C13.9863 11.649 13.5183 11.121 13.1343 10.533C12.7623 9.93299 12.5763 9.19499 12.5763 8.31899C12.5763 7.08299 12.9423 6.14099 13.6743 5.49299C14.4063 4.83299 15.4023 4.50299 16.6623 4.50299C17.4423 4.50299 18.0663 4.63499 18.5343 4.89899C19.0143 5.16299 19.3744 5.51099 19.6144 5.94299C19.8664 6.36299 20.0344 6.81299 20.1184 7.29299C20.2144 7.76099 20.2683 8.21099 20.2803 8.64299L17.5083 8.98499C17.4963 8.55299 17.4663 8.18099 17.4183 7.86899C17.3823 7.54499 17.2983 7.29899 17.1663 7.13099C17.0343 6.95099 16.8303 6.86099 16.5543 6.86099C16.2543 6.86099 16.0323 6.98699 15.8883 7.23899C15.7563 7.49099 15.6903 7.74299 15.6903 7.99499C15.6903 8.53499 15.8163 8.97899 16.0683 9.32699C16.3323 9.66299 16.6743 10.017 17.0943 10.389L18.3003 11.451C18.9363 11.991 19.4703 12.603 19.9023 13.287C20.3463 13.971 20.5683 14.817 20.5683 15.825C20.5683 16.509 20.4124 17.133 20.1004 17.697C19.7884 18.249 19.3443 18.687 18.7683 19.011C18.2043 19.335 17.5323 19.497 16.7523 19.497Z" fill="#FAF5F0"/>
<path d="M7.12188 19.461C6.13788 19.461 5.37588 19.257 4.83588 18.849C4.30788 18.441 3.94188 17.895 3.73788 17.211C3.53388 16.515 3.43188 15.747 3.43188 14.907V9.11101C3.43188 8.21101 3.53388 7.41901 3.73788 6.73501C3.95388 6.05101 4.33188 5.51701 4.87188 5.13301C5.41188 4.74901 6.16188 4.55701 7.12188 4.55701C7.99788 4.55701 8.68189 4.72501 9.17389 5.06101C9.67789 5.39701 10.0379 5.87701 10.2539 6.50101C10.4699 7.11301 10.5779 7.84501 10.5779 8.69701V9.57901H9.28188V8.73301C9.28188 8.09701 9.22788 7.55101 9.11988 7.09501C9.02388 6.63901 8.81988 6.28501 8.50788 6.03301C8.19588 5.78101 7.73988 5.65501 7.13988 5.65501C6.47988 5.65501 5.98189 5.79301 5.64588 6.06901C5.32189 6.33301 5.09988 6.71101 4.97988 7.20301C4.87188 7.69501 4.81789 8.26501 4.81789 8.91301V15.123C4.81789 15.843 4.88388 16.443 5.01588 16.923C5.15988 17.403 5.39989 17.763 5.73589 18.003C6.07189 18.243 6.53988 18.363 7.13988 18.363C7.75188 18.363 8.20788 18.231 8.50788 17.967C8.81988 17.703 9.02388 17.337 9.11988 16.869C9.22788 16.389 9.28188 15.831 9.28188 15.195V14.241H10.5779V15.105C10.5779 15.957 10.4759 16.713 10.2719 17.373C10.0799 18.021 9.73188 18.531 9.22788 18.903C8.73588 19.275 8.03388 19.461 7.12188 19.461Z" fill="#FAF5F0"/>
</svg>
